<svg xmlns="http://www.w3.org/2000/svg" xmlns:xlink="http://www.w3.org/1999/xlink" version="1.1" id="Layer_1" x="0px" y="0px" viewBox="0 0 80 65" xml:space="preserve" enable-background="new 0 0 80 65">
  <g>
    <path fill="#1397e8" d="M41.6 48.6H26.9l-9.6-18.4 -3.9 2.4V49H0V0h13.3v21.2c1.3-2.2 2.6-4.1 3.9-6.3L27.5 0.2h14.4L26.5 21.9C26.5 21.7 41.6 48.6 41.6 48.6z"/>
    <path fill="#1397e8" d="M76.4 15.5c-2.2-3.5-5.9-5.3-9.8-5.2 -4.1-0.2-7.7 2-10 5.5H56L54.3 11H43.6v49l12.9 5V50.5c0-2-0.2-3.9-0.4-5.5h0.7c2.4 2.9 5.9 4.6 9.6 4.4 3.9 0 7.9-2 9.8-5.3 2.6-4.4 3.9-9.4 3.7-14.4C80.3 24.7 79 19.9 76.4 15.5zM66.1 36.8c-0.6 1.3-2.2 2.2-3.7 2.2 -1.7 0.2-3.1-0.7-4.1-2.2 -1.1-2.2-1.5-4.6-1.3-7v-1.1c0-2.2 0.4-4.1 1.3-6.1 0.6-1.3 2.4-2.2 3.9-2 1.5-0.2 2.9 0.6 3.9 2 0.9 2.2 1.3 4.6 1.1 7C67.4 32.2 67 34.6 66.1 36.8z"/>
  </g>
</svg>